<?xml version="1.0" encoding="utf-8"?>
<!-- Generator: Adobe Illustrator 15.1.0, SVG Export Plug-In . SVG Version: 6.00 Build 0)  -->
<!DOCTYPE svg PUBLIC "-//W3C//DTD SVG 1.1//EN" "http://www.w3.org/Graphics/SVG/1.1/DTD/svg11.dtd">
<svg version="1.1" id="Layer_1" xmlns="http://www.w3.org/2000/svg" xmlns:xlink="http://www.w3.org/1999/xlink" x="0px" y="0px"
	 width="612px" height="792px" viewBox="0 0 612 792" enable-background="new 0 0 612 792" xml:space="preserve">
<g display="none">
	<g display="inline">
		<path d="M174.291,190.327c8.71,8.711,8.71,22.821,0,31.532L51.959,344.191c-8.704,8.71-22.821,8.71-31.532,0l-2.128-2.128
			c-8.704-8.704-8.704-22.821,0-31.532l122.339-122.339c8.704-8.704,22.821-8.704,31.532,0L174.291,190.327z"/>
		<path d="M174.291,430.741c8.71,8.704,8.71,22.821,0,31.531l-2.128,2.129c-8.704,8.711-22.821,8.711-31.532,0L18.299,342.062
			c-8.704-8.704-8.704-22.821,0-31.532l2.128-2.128c8.711-8.711,22.821-8.711,31.532,0L174.291,430.741z"/>
	</g>
	<g display="inline">
		<path d="M439.898,190.327c-8.71,8.711-8.71,22.821,0,31.532L562.23,344.191c8.704,8.71,22.814,8.71,31.532,0l2.128-2.128
			c8.711-8.704,8.711-22.821,0-31.532L473.559,188.192c-8.704-8.704-22.82-8.704-31.531,0L439.898,190.327z"/>
		<path d="M439.898,430.741c-8.71,8.704-8.71,22.821,0,31.531l2.129,2.129c8.704,8.711,22.82,8.711,31.531,0l122.332-122.332
			c8.711-8.704,8.711-22.821,0-31.532l-2.128-2.128c-8.711-8.711-22.821-8.711-31.532,0L439.898,430.741z"/>
	</g>
	<g display="inline">
		<circle cx="339.449" cy="262.707" r="24.487"/>
		<g>
			<path d="M389.735,251.5h-21.393c2.047,0,3.229,8.588,3.229,13.6c0,5.011-1.183,6.8-3.229,13.6h21.393
				c7.711,0,13.96-5.889,13.96-13.6C403.695,257.389,397.446,251.5,389.735,251.5z"/>
			<path d="M307.326,265.1c0-5.012,1.176-13.6,3.223-13.6h-88.284c-7.704,0-13.954,5.889-13.954,13.6c0,7.711,6.25,13.6,13.954,13.6
				h88.284C308.502,271.9,307.326,270.111,307.326,265.1z"/>
		</g>
		<circle cx="261.29" cy="329.7" r="24.487"/>
		<g>
			<path d="M229.174,329.7c0-5.012,1.176-10.2,3.223-17h-10.132c-7.704,0-13.954,9.289-13.954,17c0,7.711,6.25,17,13.954,17h10.132
				C230.35,339.9,229.174,334.705,229.174,329.7z"/>
			<path d="M389.735,312.7h-99.552c2.04,6.8,3.223,11.988,3.223,17c0,5.004-1.183,10.2-3.223,17h99.552
				c7.711,0,13.96-9.289,13.96-17C403.695,321.989,397.446,312.7,389.735,312.7z"/>
		</g>
		<circle cx="361.773" cy="396.694" r="24.487"/>
		<g>
			<path d="M329.657,394.3c0-5.004,1.177-6.8,3.229-13.6H222.265c-7.704,0-13.954,5.896-13.954,13.6
				c0,7.718,6.25,13.601,13.954,13.601h110.623C330.834,407.9,329.657,399.305,329.657,394.3z"/>
			<path d="M390.722,382.829c2.013,4.202,3.175,8.887,3.175,13.858s-1.162,9.656-3.175,13.858
				c7.234-0.51,12.974-6.487,12.974-13.858S397.956,383.345,390.722,382.829z"/>
		</g>
	</g>
</g>
<g>
	<g>
		<circle fill="#FFFFFF" cx="330.949" cy="269.445" r="24.487"/>
		<g>
			<path fill="#FFFFFF" d="M381.235,258.3h-21.393c2.047,0,3.229,8.589,3.229,13.6c0,5.012-1.183,6.8-3.229,13.6h21.393
				c7.711,0,13.96-5.889,13.96-13.6C395.195,264.189,388.946,258.3,381.235,258.3z"/>
			<path fill="#FFFFFF" d="M298.826,271.9c0-5.011,1.176-13.6,3.223-13.6h-88.285c-7.704,0-13.954,5.889-13.954,13.6
				c0,7.711,6.25,13.6,13.954,13.6h88.285C300.002,278.7,298.826,276.912,298.826,271.9z"/>
		</g>
		<circle fill="#FFFFFF" cx="252.79" cy="336.432" r="24.487"/>
		<g>
			<path fill="#FFFFFF" d="M220.674,336.5c0-5.012,1.176-10.2,3.223-17h-10.132c-7.704,0-13.954,9.289-13.954,17
				c0,7.711,6.25,17,13.954,17h10.132C221.85,346.7,220.674,341.505,220.674,336.5z"/>
			<path fill="#FFFFFF" d="M381.235,319.5h-99.552c2.04,6.8,3.223,11.988,3.223,17c0,5.005-1.183,10.2-3.223,17h99.552
				c7.711,0,13.96-9.289,13.96-17C395.195,328.789,388.946,319.5,381.235,319.5z"/>
		</g>
		<circle fill="#FFFFFF" cx="353.273" cy="403.426" r="24.487"/>
		<g>
			<path fill="#FFFFFF" d="M321.157,401.1c0-5.004,1.177-6.8,3.229-13.6H213.765c-7.704,0-13.954,5.896-13.954,13.6
				c0,7.719,6.25,13.601,13.954,13.601h110.623C322.334,414.7,321.157,406.104,321.157,401.1z"/>
			<path fill="#FFFFFF" d="M382.222,389.567c2.013,4.202,3.175,8.888,3.175,13.858s-1.162,9.656-3.175,13.858
				c7.234-0.51,12.974-6.487,12.974-13.858S389.456,390.077,382.222,389.567z"/>
		</g>
	</g>
	<g>
		<path fill="#FFFFFF" d="M100.457,336.514c7.255,4.501,12.934,9.534,17.02,15.109c4.087,5.569,6.95,12.675,8.589,21.318
			c1.632,8.643,2.455,19.706,2.455,33.211c0,10.118,0.231,17.585,0.693,22.393c0.456,4.801,1.38,8.459,2.761,10.962
			c1.38,2.502,3.04,4.141,4.984,4.909c1.938,0.769,5.263,1.51,9.969,2.224c3.883,0.51,7.106,2.407,9.663,5.678
			c2.557,3.265,3.835,7.562,3.835,12.886c0,12.37-7.514,18.558-22.542,18.558c-9.31,0-17.612-1.938-24.929-5.821
			c-7.31-3.889-12.96-9.384-16.945-16.489c-3.985-7.106-6.032-15.26-6.134-24.467c-0.306-15.545-0.612-28.016-0.918-37.42
			c-0.306-9.412-0.769-15.491-1.38-18.258c-1.537-6.848-3.815-12.016-6.827-15.491c-3.019-3.475-6.957-6.718-11.812-9.737
			c-4.855-3.013-8.31-5.726-10.35-8.126s-3.067-6.215-3.067-11.431c0-7.562,2.965-13.24,8.901-17.027
			c7.364-4.597,12.6-8.507,15.721-11.73c3.122-3.223,5.318-7.364,6.596-12.424c1.278-5.059,2.013-10.581,2.224-16.564
			c0.204-5.984,0.51-20.373,0.918-43.18c0.306-14.11,4.78-25.377,13.423-33.816c8.643-8.439,20.169-12.655,34.584-12.655
			c15.028,0,22.542,6.086,22.542,18.251c0,5.521-1.258,9.867-3.761,13.035c-2.509,3.169-5.753,5.012-9.737,5.522
			c-5.93,0.823-10.071,2.046-12.424,3.686c-2.353,1.639-3.883,4.808-4.597,9.506c-0.714,4.706-1.176,13.804-1.38,27.302
			c-0.204,13.192-0.993,24.004-2.38,32.443c-1.381,8.432-4.094,15.62-8.126,21.549C113.975,326.341,108.12,331.706,100.457,336.514z
			"/>
	</g>
	<g>
		<path fill="#FFFFFF" d="M476.986,320.411c-4.039-5.93-6.746-13.117-8.126-21.549c-1.381-8.438-2.163-19.25-2.38-32.443
			c-0.197-13.498-0.667-22.596-1.381-27.302c-0.707-4.699-2.244-7.875-4.597-9.506s-6.494-2.863-12.424-3.686
			c-3.991-0.51-7.229-2.353-9.744-5.521c-2.496-3.169-3.761-7.514-3.761-13.036c0-12.166,7.514-18.251,22.549-18.251
			c14.409,0,25.942,4.216,34.585,12.655c8.643,8.439,13.11,19.707,13.423,33.816c0.408,22.807,0.707,37.196,0.925,43.18
			c0.197,5.977,0.945,11.499,2.217,16.565c1.278,5.066,3.481,9.207,6.604,12.423c3.114,3.223,8.356,7.133,15.714,11.73
			c5.937,3.788,8.901,9.466,8.901,17.027c0,5.215-1.02,9.023-3.066,11.431s-5.494,5.114-10.343,8.126
			c-4.862,3.013-8.793,6.263-11.812,9.738c-3.013,3.481-5.291,8.643-6.827,15.49c-0.612,2.761-1.067,8.847-1.374,18.258
			c-0.312,9.404-0.619,21.875-0.925,37.42c-0.102,9.207-2.142,17.36-6.134,24.467c-3.991,7.105-9.636,12.601-16.945,16.49
			c-7.31,3.883-15.619,5.82-24.922,5.82c-15.035,0-22.549-6.181-22.549-18.557c0-5.318,1.278-9.615,3.835-12.887
			c2.557-3.271,5.78-5.168,9.663-5.678c4.705-0.714,8.03-1.455,9.969-2.224c1.944-0.762,3.604-2.407,4.984-4.909
			c1.374-2.503,2.306-6.161,2.754-10.962c0.463-4.808,0.693-12.274,0.693-22.393c0-13.498,0.823-24.562,2.455-33.211
			c1.632-8.643,4.502-15.742,8.596-21.318c4.093-5.576,9.765-10.608,17.02-15.11C486.88,331.706,481.025,326.341,476.986,320.411z"
			/>
	</g>
</g>
</svg>
