<?xml version="1.0" encoding="utf-8"?>
<!-- Generator: Adobe Illustrator 15.1.0, SVG Export Plug-In . SVG Version: 6.00 Build 0)  -->
<!DOCTYPE svg PUBLIC "-//W3C//DTD SVG 1.1//EN" "http://www.w3.org/Graphics/SVG/1.1/DTD/svg11.dtd">
<svg version="1.1" id="Layer_1" xmlns="http://www.w3.org/2000/svg" xmlns:xlink="http://www.w3.org/1999/xlink" x="0px" y="0px"
	 width="612px" height="792px" viewBox="0 0 612 792" enable-background="new 0 0 612 792" xml:space="preserve">
<title>30 -Javascript- (Solid)</title>
<desc>Created with Sketch.</desc>
<g>
	<g transform="translate(-1200.000000, -580.000000)">
		<g transform="translate(1200.000000, 580.000000)">
			<path fill="#FFFFFF" d="M469.2,390.9c50.622,0,91.8,41.188,91.8,91.8s-41.178,91.8-91.8,91.8c-50.623,0-91.8-41.188-91.8-91.8
				c0-5.631,4.559-10.2,10.199-10.2s10.2,4.569,10.2,10.2c0,39.372,32.038,71.399,71.4,71.399c39.361,0,71.399-32.027,71.399-71.399
				s-32.038-71.4-71.399-71.4c-50.623,0-91.8-41.188-91.8-91.8s41.177-91.8,91.8-91.8c50.622,0,91.8,41.188,91.8,91.8
				c0,5.63-4.56,10.2-10.2,10.2s-10.2-4.57-10.2-10.2c0-39.372-32.038-71.4-71.399-71.4c-39.362,0-71.4,32.028-71.4,71.4
				S429.838,390.9,469.2,390.9L469.2,390.9z M346.8,482.7c0,50.612-41.177,91.8-91.8,91.8s-91.8-41.188-91.8-91.8
				c0-5.631,4.559-10.2,10.2-10.2s10.2,4.569,10.2,10.2c0,39.372,32.038,71.399,71.4,71.399s71.4-32.027,71.4-71.399V237.9
				c0-5.63,4.559-10.2,10.199-10.2s10.2,4.569,10.2,10.2V482.7z M601.8,13.5H10.2C4.56,13.5,0,18.069,0,23.7v591.6
				c0,5.631,4.56,10.2,10.2,10.2h591.6c5.641,0,10.2-4.569,10.2-10.2V23.7C612,18.069,607.44,13.5,601.8,13.5L601.8,13.5z"/>
		</g>
	</g>
</g>
</svg>
