<?xml version="1.0" encoding="utf-8"?>
<!-- Generator: Adobe Illustrator 15.1.0, SVG Export Plug-In . SVG Version: 6.00 Build 0)  -->
<!DOCTYPE svg PUBLIC "-//W3C//DTD SVG 1.1//EN" "http://www.w3.org/Graphics/SVG/1.1/DTD/svg11.dtd">
<svg version="1.1" id="Layer_1" xmlns="http://www.w3.org/2000/svg" xmlns:xlink="http://www.w3.org/1999/xlink" x="0px" y="0px"
	 width="612px" height="792px" viewBox="0 0 612 792" enable-background="new 0 0 612 792" xml:space="preserve">
<g>
	<rect x="79.598" y="227.113" fill="#FFFFFF" width="455.583" height="79.343"/>
</g>
<g>
	<path fill="#FFFFFF" d="M586.844,534.631H26.609C11.934,534.631,0,522.696,0,508.021V110.005C0,95.33,11.934,83.383,26.609,83.383
		h560.234c14.663,0,26.609,11.934,26.609,26.622v398.017C613.453,522.696,601.507,534.631,586.844,534.631z M26.609,102.074
		c-4.361,0-7.905,3.557-7.905,7.918v398.017c0,4.373,3.558,7.918,7.905,7.918h560.234c4.361,0,7.905-3.558,7.905-7.918V110.005
		c0-4.374-3.557-7.918-7.905-7.918H26.609V102.074z M577.396,504.592H523.26V340.436h-188.61v164.156h-57.095V340.436H88.944
		v164.156H36.044V191.528h541.352V504.592z M541.964,485.9h16.741V210.22H54.749v275.668h15.504V321.744h226.006V485.9h19.699
		V321.744h226.006V485.9z M183.46,177.516c-11.883,0-22.083-7.268-26.418-17.583c-4.322,10.315-14.535,17.583-26.405,17.583
		c-11.985,0-22.274-7.408-26.52-17.875c-4.259,10.468-14.548,17.875-26.533,17.875c-15.785,0-28.624-12.839-28.624-28.611
		c0-15.785,12.839-28.624,28.624-28.624c11.985,0,22.274,7.408,26.533,17.888c4.246-10.48,14.535-17.888,26.52-17.888
		c11.883,0,22.083,7.28,26.405,17.595c4.335-10.315,14.547-17.595,26.418-17.595c15.771,0,28.611,12.839,28.611,28.624
		C212.071,164.677,199.231,177.516,183.46,177.516z M183.46,138.973c-5.483,0-9.933,4.45-9.933,9.933c0,5.47,4.45,9.919,9.933,9.919
		c5.47,0,9.919-4.449,9.919-9.919C193.379,143.435,188.917,138.973,183.46,138.973z M130.624,138.973
		c-5.47,0-9.919,4.45-9.919,9.933c0,5.47,4.45,9.919,9.919,9.919c5.483,0,9.933-4.449,9.933-9.919
		C140.556,143.435,136.106,138.973,130.624,138.973z M77.571,138.973c-5.482,0-9.932,4.45-9.932,9.933
		c0,5.47,4.45,9.919,9.932,9.919c5.47,0,9.92-4.449,9.92-9.919C87.491,143.435,83.041,138.973,77.571,138.973z"/>
</g>
<g>
	<path stroke="#000000" stroke-width="0.0801" stroke-linecap="round" stroke-linejoin="round" d="M304.929,376.046"/>
</g>
<g>
	<path stroke="#000000" stroke-width="0.0801" stroke-linecap="round" stroke-linejoin="round" d="M307.912,367.567"/>
</g>
</svg>
