<?xml version="1.0" encoding="utf-8"?>
<!-- Generator: Adobe Illustrator 15.1.0, SVG Export Plug-In . SVG Version: 6.00 Build 0)  -->
<!DOCTYPE svg PUBLIC "-//W3C//DTD SVG 1.1//EN" "http://www.w3.org/Graphics/SVG/1.1/DTD/svg11.dtd">
<svg version="1.1" id="Layer_1" xmlns="http://www.w3.org/2000/svg" xmlns:xlink="http://www.w3.org/1999/xlink" x="0px" y="0px"
	 width="612px" height="792px" viewBox="0 0 612 792" enable-background="new 0 0 612 792" xml:space="preserve">
<title>Artboard 3</title>
<path fill="#FFFFFF" d="M607.471,73.537v363.405c-0.044,49.446-35.298,91.849-83.904,100.919L172.339,594.9
	c-8.975-0.01-17.469-4.055-23.134-11.017c-4.408-5.563-6.745-12.486-6.609-19.584v-68.115c0.036-2.637,2.202-4.744,4.838-4.708
	c0.224,0.003,0.448,0.022,0.669,0.057c16.046,2.409,32.363,2.409,48.409,0c2.605-0.406,5.046,1.377,5.452,3.981
	c0.034,0.222,0.053,0.445,0.056,0.67v21.542L418.853,410.32c14.694-7.267,32.497-1.246,39.765,13.448
	c2.044,4.133,3.097,8.686,3.075,13.297c0.104,23.862,19.534,43.122,43.396,43.018c1.244-0.006,2.488-0.065,3.728-0.178
	c22.562-2.665,39.452-21.961,39.107-44.676V103.28H201.96v63.22c-0.002,2.636-2.142,4.771-4.778,4.769
	c-0.245,0-0.489-0.019-0.73-0.057c-16.046-2.419-32.364-2.419-48.409,0c-2.605,0.406-5.046-1.377-5.451-3.982
	c-0.038-0.242-0.057-0.485-0.057-0.73V73.537c0.168-16.331,13.473-29.472,29.805-29.437h405.45
	C594.073,44.133,607.304,57.254,607.471,73.537z M13.403,490.248c-11.905-11.942-11.905-31.265,0-43.207l55.814-55.814
	c-33.002-56.896-13.631-129.773,43.265-162.774c56.896-33.002,129.773-13.631,162.774,43.265
	c27.096,46.714,19.368,105.813-18.828,143.989l0,0c-38.238,38.06-97.262,45.713-143.942,18.666l-55.814,55.876
	c-11.942,11.905-31.265,11.905-43.208,0H13.403z M131.213,372.438c22.663,22.652,59.397,22.643,82.049-0.02
	c22.652-22.663,22.643-59.397-0.02-82.049c-22.655-22.644-59.375-22.644-82.029,0C108.576,313.042,108.576,349.765,131.213,372.438z
	 M479.135,156.585h-208.08c-12.506,0.005-22.64,10.147-22.635,22.653c0.004,12.499,10.136,22.631,22.635,22.635h208.08
	c12.506,0.005,22.647-10.129,22.652-22.635s-10.129-22.648-22.635-22.653C479.146,156.585,479.141,156.585,479.135,156.585z
	 M479.135,245.02H335.988c-12.506,0-22.645,10.138-22.645,22.644s10.139,22.644,22.645,22.644h143.146
	c12.506,0,22.645-10.138,22.645-22.644S491.641,245.02,479.135,245.02z M479.135,333.209H347.493
	c-12.506,0-22.644,10.138-22.644,22.644c0,12.506,10.138,22.644,22.644,22.644h131.642c12.506,0,22.645-10.138,22.645-22.644
	C501.779,343.347,491.641,333.209,479.135,333.209z"/>
</svg>
