<?xml version="1.0" encoding="utf-8"?>
<!-- Generator: Adobe Illustrator 15.1.0, SVG Export Plug-In . SVG Version: 6.00 Build 0)  -->
<!DOCTYPE svg PUBLIC "-//W3C//DTD SVG 1.1//EN" "http://www.w3.org/Graphics/SVG/1.1/DTD/svg11.dtd">
<svg version="1.1" id="Layer_1" xmlns="http://www.w3.org/2000/svg" xmlns:xlink="http://www.w3.org/1999/xlink" x="0px" y="0px"
	 width="612px" height="792px" viewBox="0 0 612 792" enable-background="new 0 0 612 792" xml:space="preserve">
<g>
	<path fill="#FFFFFF" d="M306,262.584c-58.752,0-106.488,47.736-106.488,106.488c0,58.752,47.736,106.488,106.488,106.488
		s106.488-47.735,106.488-106.488C412.488,310.32,364.752,262.584,306,262.584z M306,398.448c-15.912,0-28.764-12.852-29.376-29.376
		c0-15.912,12.852-28.764,29.376-29.376c15.912,0,28.764,12.852,29.376,29.376C334.764,384.984,321.912,398.448,306,398.448z"/>
	<path fill="#FFFFFF" d="M477.972,250.956l19.584-67.32l4.284-14.076c0.612-1.224,0.612-2.448,0.612-3.672
		c0.611-4.284-1.225-9.18-3.672-12.24c-1.836-2.448-4.896-4.284-8.568-5.508c-2.448-0.612-4.284-0.612-6.732-0.612
		c-6.731,0.612-12.239,5.508-14.688,12.24l-23.256,79.56c-36.108-11.628-77.725-18.36-123.013-20.196v-82.62
		c0-9.18-7.955-17.136-17.136-17.136c-9.18,0-17.136,7.956-17.136,17.136v82.62c-44.064,1.224-86.292,8.568-122.4,19.584
		l-23.256-79.56c-2.448-9.18-12.24-14.076-21.42-11.628c-9.18,2.448-14.076,12.24-11.628,21.42l23.868,82.008
		C70.38,278.496,30.6,320.724,30.6,369.072c0,84.457,121.176,150.552,275.4,150.552c154.224,0,275.4-66.096,275.4-150.552
		C581.4,320.724,541.62,278.496,477.972,250.956z M306,485.352c-130.968,0-241.128-53.243-241.128-116.28
		c0-63.036,110.16-116.28,241.128-116.28s241.128,53.244,241.128,116.28C547.128,432.108,436.968,485.352,306,485.352z"/>
</g>
</svg>
